REM DIRINDEX 1\2,1\3,1\4
REM DIRNAME folder01,folder02,folder03,folder04
TITLE ""
FILE "CD1-26.mp3" MP3
  TRACK 01 AUDIO
    TITLE "2:cjc031_1708"
    INDEX 01 00:00:00
  TRACK 02 AUDIO
    TITLE "3:cjc031_1709"
    INDEX 01 00:01:05
  TRACK 03 AUDIO
    TITLE "2:cjc031_1710"
    INDEX 01 00:02:69
  TRACK 04 AUDIO
    TITLE "3:cjc031_1711"
    INDEX 01 00:04:17
  TRACK 05 AUDIO
    TITLE "2:cjc031_1712"
    INDEX 01 00:06:14
  TRACK 06 AUDIO
    TITLE "3:cjc031_1713"
    INDEX 01 00:07:29
  TRACK 07 AUDIO
    TITLE "2:cjc031_1714"
    INDEX 01 00:08:60
  TRACK 08 AUDIO
    TITLE "3:cjc031_1715"
    INDEX 01 00:10:10
  TRACK 09 AUDIO
    TITLE "2:cjc031_1716"
    INDEX 01 00:11:54
  TRACK 10 AUDIO
    TITLE "3:cjc031_1717"
    INDEX 01 00:13:12
  TRACK 11 AUDIO
    TITLE "2:cjc031_1718"
    INDEX 01 00:14:68
  TRACK 12 AUDIO
    TITLE "3:cjc031_1719"
    INDEX 01 00:16:24
  TRACK 13 AUDIO
    TITLE "2:cjc031_1720"
    INDEX 01 00:17:61
  TRACK 14 AUDIO
    TITLE "3:cjc031_1721"
    INDEX 01 00:19:11
  TRACK 15 AUDIO
    TITLE "2:cjc031_1722"
    INDEX 01 00:20:18
  TRACK 16 AUDIO
    TITLE "3:cjc031_1723"
    INDEX 01 00:21:41
  TRACK 17 AUDIO
    TITLE "2:cjc031_1724"
    INDEX 01 00:23:10
  TRACK 18 AUDIO
    TITLE "3:cjc031_1725"
    INDEX 01 00:24:14
  TRACK 19 AUDIO
    TITLE "2:cjc031_1726"
    INDEX 01 00:25:41
  TRACK 20 AUDIO
    TITLE "3:cjc031_1727"
    INDEX 01 00:27:04
  TRACK 21 AUDIO
    TITLE "2:cjc031_1728"
    INDEX 01 00:29:13
  TRACK 22 AUDIO
    TITLE "3:cjc031_1729"
    INDEX 01 00:30:54
  TRACK 23 AUDIO
    TITLE "2:cjc031_1730"
    INDEX 01 00:32:21
  TRACK 24 AUDIO
    TITLE "3:cjc031_1731"
    INDEX 01 00:33:52
  TRACK 25 AUDIO
    TITLE "2:cjc031_1732"
    INDEX 01 00:35:06
  TRACK 26 AUDIO
    TITLE "3:cjc031_1733"
    INDEX 01 00:36:21
  TRACK 27 AUDIO
    TITLE "2:cjc031_1734"
    INDEX 01 00:37:63
  TRACK 28 AUDIO
    TITLE "3:cjc031_1735"
    INDEX 01 00:38:73
  TRACK 29 AUDIO
    TITLE "2:cjc031_1736"
    INDEX 01 00:40:46
  TRACK 30 AUDIO
    TITLE "3:cjc031_1737"
    INDEX 01 00:42:00
  TRACK 31 AUDIO
    TITLE "2:cjc031_1738"
    INDEX 01 00:43:25
  TRACK 32 AUDIO
    TITLE "3:cjc031_1739"
    INDEX 01 00:44:54
  TRACK 33 AUDIO
    TITLE "2:cjc031_1740"
    INDEX 01 00:46:06
  TRACK 34 AUDIO
    TITLE "3:cjc031_1741"
    INDEX 01 00:47:32
  TRACK 35 AUDIO
    TITLE "2:cjc031_1742"
    INDEX 01 00:49:12
  TRACK 36 AUDIO
    TITLE "3:cjc031_1743"
    INDEX 01 00:50:37
  TRACK 37 AUDIO
    TITLE "2:cjc031_1744"
    INDEX 01 00:52:04
  TRACK 38 AUDIO
    TITLE "3:cjc031_1745"
    INDEX 01 00:53:27
  TRACK 39 AUDIO
    TITLE "2:cjc031_1746"
    INDEX 01 00:55:04
  TRACK 40 AUDIO
    TITLE "3:cjc031_1747"
    INDEX 01 00:56:22
  TRACK 41 AUDIO
    TITLE "2:cjc031_1748"
    INDEX 01 00:57:50
  TRACK 42 AUDIO
    TITLE "3:cjc031_1749"
    INDEX 01 00:59:00
  TRACK 43 AUDIO
    TITLE "2:cjc031_1750"
    INDEX 01 01:00:53
  TRACK 44 AUDIO
    TITLE "3:cjc031_1751"
    INDEX 01 01:01:66
  TRACK 45 AUDIO
    TITLE "2:cjc031_1752"
    INDEX 01 01:03:24
  TRACK 46 AUDIO
    TITLE "3:cjc031_1753"
    INDEX 01 01:04:45
  TRACK 47 AUDIO
    TITLE "2:cjc031_1754"
    INDEX 01 01:06:06
  TRACK 48 AUDIO
    TITLE "3:cjc031_1755"
    INDEX 01 01:07:23
  TRACK 49 AUDIO
    TITLE "2:cjc031_1756"
    INDEX 01 01:08:68
  TRACK 50 AUDIO
    TITLE "3:cjc031_1757"
    INDEX 01 01:10:14
  TRACK 51 AUDIO
    TITLE "2:cjc031_1758"
    INDEX 01 01:11:47
  TRACK 52 AUDIO
    TITLE "3:cjc031_1759"
    INDEX 01 01:12:66
  TRACK 53 AUDIO
    TITLE "2:cjc031_1760"
    INDEX 01 01:14:12
  TRACK 54 AUDIO
    TITLE "3:cjc031_1761"
    INDEX 01 01:15:33
  TRACK 55 AUDIO
    TITLE "2:cjc031_1762"
    INDEX 01 01:17:08
  TRACK 56 AUDIO
    TITLE "3:cjc031_1763"
    INDEX 01 01:18:43
  TRACK 57 AUDIO
    TITLE "2:cjc031_1764"
    INDEX 01 01:20:10
  TRACK 58 AUDIO
    TITLE "3:cjc031_1765"
    INDEX 01 01:21:23
  TRACK 59 AUDIO
    TITLE "2:cjc031_1766"
    INDEX 01 01:22:66
  TRACK 60 AUDIO
    TITLE "3:cjc031_1767"
    INDEX 01 01:24:04
  TRACK 61 AUDIO
    TITLE "2:cjc031_1768"
    INDEX 01 01:25:49
  TRACK 62 AUDIO
    TITLE "3:cjc031_1769"
    INDEX 01 01:27:12
  TRACK 63 AUDIO
    TITLE "2:cjc031_1770"
    INDEX 01 01:28:61
  TRACK 64 AUDIO
    TITLE "3:cjc031_1771"
    INDEX 01 01:30:09
  TRACK 65 AUDIO
    TITLE "2:cjc031_1772"
    INDEX 01 01:31:47
  TRACK 66 AUDIO
    TITLE "3:cjc031_1773"
    INDEX 01 01:33:03
  TRACK 67 AUDIO
    TITLE "2:cjc031_1774"
    INDEX 01 01:34:40
  TRACK 68 AUDIO
    TITLE "3:cjc031_1775"
    INDEX 01 01:35:53
  TRACK 69 AUDIO
    TITLE "2:cjc031_1776"
    INDEX 01 01:37:34
  TRACK 70 AUDIO
    TITLE "3:cjc031_1777"
    INDEX 01 01:38:53
  TRACK 71 AUDIO
    TITLE "2:cjc031_1778"
    INDEX 01 01:39:66
  TRACK 72 AUDIO
    TITLE "3:cjc031_1779"
    INDEX 01 01:41:14
  TRACK 73 AUDIO
    TITLE "2:cjc031_1780"
    INDEX 01 01:42:47
  TRACK 74 AUDIO
    TITLE "3:cjc031_1781"
    INDEX 01 01:43:74
  TRACK 75 AUDIO
    TITLE "2:cjc031_1782"
    INDEX 01 01:45:32
  TRACK 76 AUDIO
    TITLE "3:cjc031_1783"
    INDEX 01 01:46:59
  TRACK 77 AUDIO
    TITLE "2:cjc031_1784"
    INDEX 01 01:48:22
  TRACK 78 AUDIO
    TITLE "3:cjc031_1785"
    INDEX 01 01:49:37
  TRACK 79 AUDIO
    TITLE "2:cjc031_1786"
    INDEX 01 01:51:01
  TRACK 80 AUDIO
    TITLE "3:cjc031_1787"
    INDEX 01 01:52:48
  TRACK 81 AUDIO
    TITLE "0:"
    INDEX 01 01:54:01
